<svg width="26"
  height="100"
  viewBox="0 0 26 100"
  fill="none"
  xmlns="http://www.w3.org/2000/svg">
  <g id="Lighter">
    <path id="fire"
      d="M17.2884 23.9325C19.7225 21.2289 22.823 15.7478 21.504 10.4939C20.3382 5.84962 15.5711 3.64463 16.6823 0.00012207C12.3407 4.82248 11.6457 7.92387 14.744 13.3933C17.8423 18.8614 19.0334 20.971 17.288 23.9325H17.2884Z"
      fill="url(#paint0_linear_46_3)"/>
    <g id="Top">
      <g id="gear">
        <path d="M9.56558 26.1299C11.6102 26.1299 13.2677 24.3241 13.2677 22.0966C13.2677 19.869 11.6102 18.0632 9.56558 18.0632C7.52096 18.0632 5.86346 19.869 5.86346 22.0966C5.86346 24.3241 7.52096 26.1299 9.56558 26.1299Z"
          fill="#B8B7B8"/>
        <path d="M9.56558 26.4299C9.28866 26.4299 9.01173 26.398 8.7425 26.3361L8.45981 26.2722L8.58481 25.6874L8.86558 25.7513C9.15212 25.8171 9.45212 25.8431 9.74442 25.8251L10.031 25.8091L10.0637 26.4079L9.77519 26.4239C9.70596 26.4279 9.63673 26.4299 9.56558 26.4299ZM10.5194 26.3161L10.3348 25.7493L10.6079 25.6534C10.8867 25.5556 11.1521 25.4199 11.3983 25.2483L11.6387 25.0806L11.9598 25.5776L11.7194 25.7453C11.431 25.9469 11.1194 26.1065 10.7925 26.2203L10.5194 26.3161ZM8.02519 26.1065L7.76943 25.9668C7.46558 25.7992 7.18289 25.5916 6.92712 25.3461L6.71558 25.1425L7.10596 24.7034L7.3175 24.9069C7.53673 25.1165 7.77904 25.2942 8.03866 25.4359L8.29442 25.5756L8.02519 26.1065ZM12.304 25.2622L11.8733 24.865L12.0637 24.6415C12.2598 24.4119 12.429 24.1564 12.5656 23.881L12.6983 23.6155L13.2098 23.891L13.0771 24.1564C12.9194 24.4758 12.7233 24.7712 12.4963 25.0387L12.304 25.2622ZM6.41942 24.7792L6.26365 24.5277C6.07519 24.2303 5.92327 23.9069 5.81173 23.5696L5.7175 23.2862L6.26365 23.0906L6.35596 23.374C6.45404 23.6654 6.58481 23.9449 6.74635 24.2024L6.90404 24.4538L6.41942 24.7792ZM13.3694 23.4459L12.8079 23.3061L12.8752 23.0147C12.9444 22.7173 12.979 22.4079 12.979 22.0966C12.979 21.8471 12.9579 21.5976 12.9117 21.3541L12.8579 21.0606L13.4252 20.9469L13.479 21.2423C13.531 21.5217 13.556 21.8091 13.556 22.0966C13.556 22.4558 13.5156 22.8111 13.4367 23.1564L13.3694 23.4459ZM5.62135 22.8231L5.59443 22.5257C5.58289 22.384 5.5752 22.2403 5.5752 22.0966C5.5752 21.883 5.58866 21.6694 5.6175 21.4618L5.65789 21.1644L6.22904 21.2483L6.18866 21.5437C6.16558 21.7253 6.15212 21.9109 6.15212 22.0966C6.15212 22.2203 6.15789 22.3461 6.16943 22.4698L6.19635 22.7672L5.62135 22.8231ZM6.30981 20.9289L5.7752 20.7073L5.88096 20.4299C6.00981 20.0966 6.17519 19.7812 6.37712 19.4938L6.54443 19.2503L7.01365 19.5996L6.84443 19.8431C6.67135 20.0926 6.52712 20.364 6.4175 20.6515L6.30981 20.9289ZM12.7617 20.7473L12.6425 20.4738C12.5175 20.1924 12.3617 19.9289 12.1752 19.6894L11.9944 19.4558L12.4463 19.0806L12.6252 19.3141C12.8406 19.5936 13.0233 19.899 13.1656 20.2243L13.2867 20.4978L12.7617 20.7473ZM7.22712 19.36L6.85788 18.901L7.07904 18.7093C7.34635 18.4772 7.63866 18.2838 7.9502 18.1339L8.21173 18.0079L8.45596 18.5513L8.19443 18.6774C7.92712 18.8051 7.67712 18.9708 7.44827 19.1684L7.22712 19.36ZM11.7713 19.2283L11.5406 19.0507C11.3021 18.865 11.0425 18.7133 10.7694 18.6018L10.5021 18.4912L10.7156 17.9347L10.9829 18.0453C11.3021 18.177 11.606 18.3536 11.8848 18.5704L12.1156 18.7493L11.7713 19.2283ZM8.75019 18.4564L8.65596 17.8656L8.94058 17.8171C9.28096 17.7592 9.63481 17.7489 9.97712 17.7868L10.2637 17.8187L10.2021 18.4141L9.91558 18.3824C9.62327 18.3497 9.32327 18.3588 9.03481 18.4079L8.75019 18.4564Z"
          fill="#B8B7B8"/>
      </g>
      <path id="button"
        d="M5.36138 25.0088C5.13061 24.4738 4.65946 24.0587 4.06138 23.9429L2.11331 23.5656C1.14407 23.376 0.211379 24.0387 0.0306095 25.0447C-0.15016 26.0487 0.488303 27.0167 1.45561 27.2064L2.1633 27.3421V29.8451H8.0133V25.0088H5.36138Z"
        fill="#2B2230"/>
      <path id="Part"
        d="M24.8308 31.5017C24.8308 32.9728 23.7981 34.1644 22.5231 34.1644H9.49422C8.21922 34.1644 7.18652 32.9728 7.18652 31.5017V22.5277C7.18652 21.0566 8.21922 19.865 9.49422 19.865H22.5231C23.7981 19.865 24.8308 21.0566 24.8308 22.5277V31.5017Z"
        fill="#423B45"/>
    </g>
    <g id="Base">
      <path id="imagebot_6"
        d="M25.0254 97.4853C25.0254 98.8101 23.9836 99.8831 22.6973 99.8831H2.3535C1.06722 99.8831 0.0253906 98.8101 0.0253906 97.4853V34.5582C0.0253906 33.2334 1.06722 32.7926 2.3535 32.7926H22.6973C23.9836 32.7926 25.0254 33.2334 25.0254 34.5582V97.4853Z"
        fill="#FBC757"/>
      <path id="imagebot_10"
        d="M25.0254 34.5637C25.0254 34.5637 25.0254 34.3189 25.0254 34.1916V32.6771C25.0254 31.1128 23.9877 29.8451 22.7066 29.8451H2.34414C1.06303 29.8451 0.0253906 31.1128 0.0253906 32.6771V34.1916C0.0253906 34.3189 0.0253906 34.5637 0.0253906 34.5637H25.0254Z"
        fill="black"/>
    </g>
  </g>
  <defs>
    <linearGradient id="paint0_linear_46_3"
      x1="16.6953"
      y1="0.063524"
      x2="18.8332"
      y2="23.7869"
      gradientUnits="userSpaceOnUse">
      <stop stop-color="white"/>
      <stop offset="0.4835"
        stop-color="#FFF200"/>
      <stop offset="1"
        stop-color="#ED1C24"/>
    </linearGradient>
  </defs>
</svg>
