<svg width="100%"
  height="5%"
  id="svg"
  viewBox="0 0 1440 690"
  xmlns="http://www.w3.org/2000/svg"
  class="transition duration-300 ease-in-out delay-150">
  <path d="M 0,700 C 0,700 0,233 0,233 C 22.63377053207646,258.9461019805589 45.26754106415292,284.89220396111784 66,302 C 86.73245893584708,319.10779603888216 105.56360627546479,327.3772861360877 131,316 C 156.4363937245352,304.6227138639123 188.478033833988,273.59865149453145 218,270 C 247.521966166012,266.40134850546855 274.52425838858323,290.22810788578647 295,287 C 315.47574161141677,283.77189211421353 329.4249326116791,253.48891696232283 349,244 C 368.5750673883209,234.51108303767717 393.7760111647005,245.8162242649222 419,251 C 444.2239888352995,256.1837757350778 469.47102272951884,255.24618597798832 498,276 C 526.5289772704812,296.7538140220117 558.3398979172243,339.19903182312464 582,305 C 605.6601020827757,270.80096817687536 621.1693856015843,159.95768672951317 642,155 C 662.8306143984157,150.04231327048683 688.9825596764388,250.97022125882262 718,296 C 747.0174403235612,341.0297787411774 778.9003756926609,330.1614282351964 805,311 C 831.0996243073391,291.8385717648036 851.4159375529179,264.38406580039174 873,264 C 894.5840624470821,263.61593419960826 917.4358740956683,290.30230856323675 938,297 C 958.5641259043317,303.69769143676325 976.8405660644094,290.40669994666143 1004,286 C 1031.1594339355906,281.59330005333857 1067.2018616466942,286.0708916501174 1090,286 C 1112.7981383533058,285.9291083498826 1122.3519873488137,281.3097334528691 1146,262 C 1169.6480126511863,242.69026654713088 1207.39018895805,208.69017453840618 1233,221 C 1258.60981104195,233.30982546159382 1272.0872568189866,291.92956839350603 1294,288 C 1315.9127431810134,284.07043160649397 1346.260783766004,217.5915518875697 1372,198 C 1397.739216233996,178.4084481124303 1418.869608116998,205.70422405621514 1440,233 C 1440,233 1440,700 1440,700 Z"
    stroke="none"
    stroke-width="0"
    fill="#823832"
    fill-opacity="0.53"
    class="transition-all duration-300 ease-in-out delay-150 path-0"></path>
  <path d="M 0,700 C 0,700 0,466 0,466 C 21.67952647329259,423.0384898223717 43.35905294658518,380.07697964474335 70,390 C 96.64094705341482,399.92302035525665 128.24331468695183,462.73057124339834 150,485 C 171.75668531304817,507.26942875660166 183.66768830560753,489.00073538166305 208,466 C 232.33231169439247,442.99926461833695 269.08593209061814,415.2664872299493 298,403 C 326.91406790938186,390.7335127700507 347.98858333192004,393.93331569854 371,410 C 394.01141666807996,426.06668430146 418.95973458170175,455.00024997589077 444,473 C 469.04026541829825,490.99975002410923 494.1724783412727,498.0656843978969 516,501 C 537.8275216587273,503.9343156021031 556.3503520532078,502.7370124325215 576,511 C 595.6496479467922,519.2629875674785 616.426113445896,536.9862658720172 643,504 C 669.573886554104,471.01373412798284 701.9451941632082,387.3179240794099 725,399 C 748.0548058367918,410.6820759205901 761.7931099012715,517.742037810343 787,545 C 812.2068900987285,572.257962189657 848.8823662317059,519.7139246792182 876,491 C 903.1176337682941,462.28607532078183 920.6774251719053,457.4022634727843 943,460 C 965.3225748280947,462.5977365272157 992.4079330806735,472.67702142964464 1016,464 C 1039.5920669193265,455.32297857035536 1059.6908425054005,427.88965080863704 1083,428 C 1106.3091574945995,428.11034919136296 1132.828696897724,455.76437533580713 1158,459 C 1183.171303102276,462.23562466419287 1206.9943699037026,441.05284784813415 1231,433 C 1255.0056300962974,424.94715215186585 1279.1938234874647,430.02423327165616 1305,423 C 1330.8061765125353,415.97576672834384 1358.2303361464385,396.8502190652411 1381,402 C 1403.7696638535615,407.1497809347589 1421.8848319267809,436.5748904673794 1440,466 C 1440,466 1440,700 1440,700 Z"
    stroke="none"
    stroke-width="0"
    fill="#823832"
    fill-opacity="1"
    class="transition-all duration-300 ease-in-out delay-150 path-1"></path>
</svg>