<svg width="100%" height="100%" viewBox="0 0 1440 680" fill="none" xmlns="http://www.w3.org/2000/svg">
<path d="M1440 3.05176e-05V379.98C1410.42 379.391 1385.9 249 1355 191C1328.45 150.691 1308.88 132.325 1291.85 142.204C1274.82 152.084 1257.18 259.864 1233.15 250.17C1209.12 240.476 1178.68 113.307 1152.85 107.204C1127.01 101.102 1111.48 143.099 1088.85 147.204C1066.22 151.31 1036.5 117.523 1007.85 123.204C979.199 128.886 953.975 148.035 931.2 173.204C908.425 198.373 898.649 266.528 876.398 250.17C854.146 233.813 817.067 158.944 793.848 160.204C770.628 161.465 748.934 165.89 723.064 187.204C697.194 208.519 665.364 210.722 638.064 190.204C610.765 169.687 589.779 162.448 565.848 132.204C541.916 101.961 516.822 84.713 495.848 104.204C474.874 123.696 458.02 179.926 439.848 190.204C421.675 200.482 402.185 164.807 373.848 166.204C345.51 167.601 308.326 206.07 280.848 197.204C253.369 188.338 235.596 132.137 214.848 117.204C194.1 102.272 169.201 210.607 146.672 213.204C124.142 215.802 103.982 112.661 79.8477 114.204C55.7132 115.748 12.7434 299.878 0 378.401V3.05176e-05L1440 3.05176e-05Z" fill="#823832"/>
</svg>
